<?xml version="1.0" encoding="UTF-8"?>
<svg version="1.1" xmlns="http://www.w3.org/2000/svg" width="512" height="512">
<path d="M0 0 C5.50407135 1.4415425 8.38211776 7.25080475 11.12792969 11.83886719 C11.60391602 12.65387695 12.07990234 13.46888672 12.5703125 14.30859375 C13.08110352 15.17258789 13.59189453 16.03658203 14.11816406 16.92675781 C23.25265576 32.47025996 32.27964354 48.12792247 40.08300781 64.38964844 C41.30628451 66.91699499 42.55996023 69.42843807 43.8125 71.94140625 C55.75978115 96.1250321 66.64213366 120.42190528 59.1328125 147.55859375 C53.50181164 163.82592958 42.53218465 176.60896242 27.1953125 184.37109375 C11.1442393 192.06534988 -6.50611458 193.15442573 -23.57421875 187.8125 C-38.00569757 182.31723938 -52.76501832 170.80939009 -59.25390625 156.40234375 C-60.45533422 152.79040744 -60.12535097 149.70598693 -59.3046875 146.05859375 C-58.77129209 143.01061999 -59.23743706 140.56740142 -59.8671875 137.55859375 C-60.5065625 137.41421875 -61.1459375 137.26984375 -61.8046875 137.12109375 C-63.8671875 136.55859375 -63.8671875 136.55859375 -64.8671875 135.55859375 C-65.1171875 132.12109375 -65.1171875 132.12109375 -64.8671875 128.55859375 C-63.3821875 127.56859375 -63.3821875 127.56859375 -61.8671875 126.55859375 C-61.21178629 124.43722582 -61.21178629 124.43722582 -61.0546875 122.05859375 C-60.96574219 121.26453125 -60.87679687 120.47046875 -60.78515625 119.65234375 C-60.63870244 117.33449073 -60.63870244 117.33449073 -62.8671875 115.55859375 C-63.1719285 108.79590303 -61.15044771 102.63576994 -58.5546875 96.49609375 C-58.03116699 95.2263269 -58.03116699 95.2263269 -57.49707031 93.9309082 C-44.90623256 63.94226558 -29.26498336 35.09771785 -12.13671875 7.48046875 C-11.58218018 6.58424805 -11.0276416 5.68802734 -10.45629883 4.76464844 C-7.51800378 0.68561417 -4.82918163 0.29353849 0 0 Z " fill="#71C1E7" transform="translate(125.8671875,31.44140625)"/>
<path d="M0 0 C6.15457865 6.03183777 10.01738219 13.60950312 14.1875 21.0625 C14.90493048 22.3291549 15.62302504 23.5954339 16.34179688 24.86132812 C25.49473004 41.04008479 25.49473004 41.04008479 24.5625 45 C23.86982506 48.83181883 24.45893109 51.3739555 26 55 C28.31 55.33 30.62 55.66 33 56 C34.12941176 62.5254902 34.12941176 62.5254902 33.4375 65.0625 C32.76728621 68.03058964 33.92956086 70.22945164 35 73 C35.721875 72.835 36.44375 72.67 37.1875 72.5 C40 73 40 73 41.22338867 74.43847656 C44.52312215 79.8308062 46.94046965 85.32478394 49.125 91.25 C49.47046875 92.18384521 49.8159375 93.11769043 50.171875 94.07983398 C51.13232912 96.71398023 52.07155934 99.35442601 53 102 C53.38929688 103.09957031 53.77859375 104.19914062 54.1796875 105.33203125 C59.12932946 121.80726806 56.40393113 139.45881176 48.9375 154.625 C39.63116352 170.83222158 26.00549636 180.65346665 8.375 186.125 C-8.6392141 190.53609254 -26.61722671 188.26917026 -42.0625 179.875 C-57.69024483 169.89984372 -68.6887781 155.97940162 -73.09765625 137.6875 C-78.14832249 113.73362417 -68.3423045 88.80488843 -57 68 C-54.66677596 65.28730492 -53.19397993 64.50709989 -49.625 64.0625 C-48.49964844 63.89427734 -48.49964844 63.89427734 -47.3515625 63.72265625 C-43.87387821 64.13281503 -42.4902948 65.56392624 -40 68 C-38.24451147 70.32899887 -36.70693402 72.76227442 -35.1875 75.25 C-34.57745117 76.22453125 -34.57745117 76.22453125 -33.95507812 77.21875 C-32.96208082 78.80754568 -31.97991459 80.40310215 -31 82 C-29.59450921 77.33081958 -28.52818203 72.77157063 -27.73486328 67.95068359 C-27.56849869 66.95170296 -27.56849869 66.95170296 -27.39877319 65.93254089 C-27.16040071 64.50002467 -26.92367182 63.06723415 -26.68844986 61.63419724 C-26.31447777 59.36300224 -25.93358371 57.09307084 -25.55050659 54.82339478 C-24.46233339 48.37494525 -23.37832666 41.92589041 -22.31884766 35.47265625 C-21.66834263 31.5136031 -21.00294177 27.55730076 -20.32781601 23.60237503 C-20.07430583 22.10025814 -19.82634411 20.59719354 -19.58414078 19.09321213 C-19.24480056 16.9896728 -18.88654405 14.89016085 -18.52392578 12.79052734 C-18.32566193 11.59696625 -18.12739807 10.40340515 -17.92312622 9.17367554 C-16.65276319 4.80621205 -14.63767096 2.00079892 -10.75 -0.375 C-6.93509639 -1.24202355 -3.67370784 -1.32022443 0 0 Z " fill="#F95C3C" transform="translate(133,299)"/>
<path d="M0 0 C1.26481201 -0.00953201 2.52962402 -0.01906403 3.83276367 -0.02888489 C5.20491565 -0.02862347 6.57706764 -0.02768646 7.94921875 -0.02612305 C9.36499151 -0.03001305 10.7807631 -0.03434835 12.1965332 -0.03910828 C15.15872996 -0.04655581 18.12080749 -0.04628949 21.08300781 -0.04101562 C24.87267188 -0.03521668 28.66184789 -0.05216883 32.45143127 -0.0753603 C35.37344194 -0.09011352 38.2953354 -0.09096731 41.21737671 -0.08785057 C42.61437956 -0.08836278 44.01138914 -0.09358177 45.40835571 -0.10366249 C47.36334481 -0.11604172 49.31843292 -0.10728402 51.2734375 -0.09765625 C52.93959106 -0.09860039 52.93959106 -0.09860039 54.6394043 -0.0995636 C58.99957749 0.44481434 61.61905705 2.11324608 64.48779297 5.38720703 C66.15835516 9.58562162 65.57699049 13.05551452 65.01953125 17.47387695 C64.91802765 18.38795822 64.81652405 19.30203949 64.71194458 20.24382019 C64.37189059 23.25653785 64.00547405 26.26532829 63.63671875 29.2746582 C63.389545 31.37694594 63.1431357 33.47932368 62.89746094 35.58178711 C62.12878326 42.08693619 61.32223672 48.58711248 60.51171875 55.0871582 C60.23150314 57.35209906 59.95155387 59.61707288 59.671875 61.88208008 C58.9965455 67.34665492 58.31798273 72.81082019 57.63671875 78.2746582 C58.57990967 78.24847412 59.52310059 78.22229004 60.49487305 78.1953125 C64.0080502 78.10988899 67.52011783 78.04731522 71.03393555 78 C72.55201676 77.97491711 74.06997793 77.9408416 75.58764648 77.89746094 C77.7748784 77.83652527 79.96050914 77.80838925 82.1484375 77.78637695 C83.46287842 77.76019287 84.77731934 77.73400879 86.1315918 77.70703125 C90.53714872 78.42047555 91.96804061 79.75785394 94.63671875 83.2746582 C95.66490509 86.39620491 95.37952192 89.09279986 94.63671875 92.2746582 C92.96088981 95.58039297 90.77828449 98.34094042 88.44921875 101.2121582 C87.15251628 102.88706557 85.8569694 104.56286813 84.5625 106.23950195 C83.90330566 107.07980957 83.24411133 107.92011719 82.56494141 108.78588867 C79.65375826 112.54337171 76.89662443 116.40549178 74.13671875 120.2746582 C69.67944268 126.47328058 65.17409123 132.63446061 60.63671875 138.7746582 C53.90118816 147.89214187 47.25808238 157.07406589 40.63671875 166.2746582 C36.88045135 171.49410949 33.11883109 176.70955282 29.34423828 181.91577148 C28.15531044 183.55823943 26.96898101 185.20259009 25.78466797 186.84838867 C23.90862164 189.45366071 22.02354806 192.05218871 20.13671875 194.6496582 C19.27348999 195.85416626 19.27348999 195.85416626 18.39282227 197.08300781 C15.49107153 201.05869186 12.81817105 204.54669018 8.63671875 207.2746582 C5.06947038 207.79488192 3.16755563 207.51594769 -0.11328125 206.0246582 C-2.56090913 204.12094763 -3.29329286 203.14417429 -4.36328125 200.2746582 C-4.39587402 197.52601624 -4.39587402 197.52601624 -4.08789062 194.38818359 C-3.92293091 192.65388596 -3.92293091 192.65388596 -3.75463867 190.884552 C-3.62549072 189.69328705 -3.49634277 188.50202209 -3.36328125 187.2746582 C-3.24380127 186.16242889 -3.12432129 185.05019958 -3.0012207 183.90426636 C-2.60975048 180.41973281 -2.19346561 176.93898002 -1.76953125 173.45825195 C-1.61794556 172.19876236 -1.46635986 170.93927277 -1.31018066 169.64161682 C-0.99217192 167.00536734 -0.67307453 164.36927941 -0.35205078 161.73339844 C0.05846412 158.36150969 0.4641032 154.98905486 0.86833954 151.61640835 C1.25736947 148.37588521 1.65032423 145.1358388 2.04296875 141.89575195 C2.18778687 140.6884996 2.33260498 139.48124725 2.48181152 138.2374115 C2.61865356 137.11847 2.75549561 135.9995285 2.89648438 134.84667969 C3.01560181 133.86440903 3.13471924 132.88213837 3.25744629 131.87010193 C3.58732286 129.612685 4.03303309 127.4722762 4.63671875 125.2746582 C3.87528564 125.29560547 3.11385254 125.31655273 2.3293457 125.33813477 C-1.13056157 125.42143615 -4.59025763 125.47336405 -8.05078125 125.5246582 C-9.24896484 125.55817383 -10.44714844 125.59168945 -11.68164062 125.6262207 C-12.83857422 125.63911133 -13.99550781 125.65200195 -15.1875 125.6652832 C-16.25057373 125.68623047 -17.31364746 125.70717773 -18.40893555 125.72875977 C-22.22168789 125.14271569 -23.78277503 124.13564794 -26.36328125 121.2746582 C-27.75537759 115.31527541 -27.08927829 109.86676985 -26.33105469 103.84472656 C-26.20922318 102.81946365 -26.08739166 101.79420074 -25.96186829 100.73786926 C-25.5580887 97.36221826 -25.14091391 93.98838739 -24.72265625 90.61450195 C-24.43647304 88.26239225 -24.15077459 85.91022353 -23.86553955 83.55799866 C-23.2662097 78.63392739 -22.66007443 73.7107523 -22.04931641 68.78808594 C-21.26768708 62.48264419 -20.50444147 56.17513485 -19.74645615 49.86681271 C-19.16070748 45.01109642 -18.5645048 40.15670699 -17.96521759 35.30264473 C-17.67956455 32.97746657 -17.39732713 30.65186613 -17.11858368 28.32584953 C-16.72746788 25.07420128 -16.32212888 21.82463038 -15.91308594 18.57519531 C-15.80074112 17.616586 -15.6883963 16.65797668 -15.57264709 15.6703186 C-14.93274467 10.71583297 -14.26873042 6.47662362 -11.36328125 2.2746582 C-7.6608761 0.07915544 -4.24344623 0.01760151 0 0 Z " fill="#EEBE20" transform="translate(350.36328125,24.725341796875)"/>
<path d="M0 0 C3 0.25 3 0.25 5 2.25 C5.24839699 4.08858025 5.24839699 4.08858025 5.24609566 6.36920357 C5.25007775 7.23706777 5.25405985 8.10493197 5.25816262 8.99909508 C5.25233693 9.95822458 5.24651125 10.91735407 5.24050903 11.9055481 C5.24307231 13.42719285 5.24307231 13.42719285 5.24568737 14.9795779 C5.24899852 18.40068094 5.23795186 21.82159062 5.22705078 25.24267578 C5.22648702 27.68628942 5.22680254 30.1299034 5.22793579 32.57351685 C5.22839218 37.84571982 5.22269579 43.11786187 5.21146011 48.39004898 C5.19522565 56.01279412 5.18999922 63.6355153 5.18748413 71.25827585 C5.18310379 83.62483417 5.16978552 95.99136615 5.15087891 108.35791016 C5.13252886 120.37288277 5.11836808 132.38784824 5.10986328 144.40283203 C5.10933783 145.14308149 5.10881239 145.88333094 5.10827102 146.6460122 C5.105661 150.35952056 5.10313357 154.07302897 5.10064721 157.78653741 C5.07990417 188.60771076 5.04452107 219.42885139 5 250.25 C6.27628202 250.24815641 7.55256405 250.24631283 8.86752129 250.24441338 C39.13803326 250.20113321 69.40853691 250.16813679 99.67907237 250.14786934 C103.40177096 250.14536781 107.12446948 250.14277918 110.84716797 250.14013672 C111.58831581 250.1396121 112.32946365 250.13908748 113.09307052 250.13854696 C125.10653568 250.12983533 137.11998176 250.1140612 149.13343559 250.09569441 C161.45283925 250.07701641 173.77223289 250.06588774 186.09165013 250.06182301 C193.69840237 250.05907358 201.30510073 250.05037796 208.9118364 250.03416707 C214.73663836 250.02238317 220.5614124 250.02108333 226.38622665 250.02378464 C228.78165011 250.02323199 231.17707551 250.01922188 233.57248688 250.01158905 C236.8298853 250.00171405 240.08704863 250.00400373 243.3444519 250.00949097 C244.3035814 250.00366528 245.26271089 249.9978396 246.25090492 249.99183738 C247.55270122 249.99781053 247.55270122 249.99781053 248.88079643 250.00390434 C249.63340213 250.0031449 250.38600782 250.00238546 251.16141975 250.00160301 C253 250.25 253 250.25 255 252.25 C255.25 255.25 255.25 255.25 255 258.25 C253 260.25 253 260.25 251.16141975 260.49839699 C250.40881405 260.49763755 249.65620836 260.49687811 248.88079643 260.49609566 C248.01293223 260.50007775 247.14506803 260.50405985 246.25090492 260.50816262 C245.29177542 260.50233693 244.33264593 260.49651125 243.3444519 260.49050903 C241.82280715 260.49307231 241.82280715 260.49307231 240.2704221 260.49568737 C236.84931906 260.49899852 233.42840938 260.48795186 230.00732422 260.47705078 C227.56371058 260.47648702 225.1200966 260.47680254 222.67648315 260.47793579 C217.40428018 260.47839218 212.13213813 260.47269579 206.85995102 260.46146011 C199.23720588 260.44522565 191.6144847 260.43999922 183.99172415 260.43748413 C171.62516583 260.43310379 159.25863385 260.41978552 146.89208984 260.40087891 C134.87711723 260.38252886 122.86215176 260.36836808 110.84716797 260.35986328 C109.73679378 260.35907511 109.73679378 260.35907511 108.6039878 260.35827102 C104.89047944 260.355661 101.17697103 260.35313357 97.46346259 260.35064721 C66.64228924 260.32990417 35.82114861 260.29452107 5 260.25 C5.00276538 262.16442304 5.00276538 262.16442304 5.00558662 264.11752129 C5.04886679 294.38803326 5.08186321 324.65853691 5.10213066 354.92907237 C5.10463219 358.65177096 5.10722082 362.37446948 5.10986328 366.09716797 C5.11065021 367.20888973 5.11065021 367.20888973 5.11145304 368.34307052 C5.12016467 380.35653568 5.1359388 392.36998176 5.15430559 404.38343559 C5.17298359 416.70283925 5.18411226 429.02223289 5.18817699 441.34165013 C5.19092642 448.94840237 5.19962204 456.55510073 5.21583293 464.1618364 C5.22761683 469.98663836 5.22891667 475.8114124 5.22621536 481.63622665 C5.22676801 484.03165011 5.23077812 486.42707551 5.23841095 488.82248688 C5.24828595 492.0798853 5.24599627 495.33704863 5.24050903 498.5944519 C5.24924756 500.03314615 5.24924756 500.03314615 5.25816262 501.50090492 C5.25418052 502.36876912 5.25019842 503.23663332 5.24609566 504.13079643 C5.2468551 504.88340213 5.24761454 505.63600782 5.24839699 506.41141975 C5 508.25 5 508.25 3 510.25 C0 510.5 0 510.5 -3 510.25 C-5 508.25 -5 508.25 -5.24839699 506.41141975 C-5.24763755 505.65881405 -5.24687811 504.90620836 -5.24609566 504.13079643 C-5.2520688 502.82900013 -5.2520688 502.82900013 -5.25816262 501.50090492 C-5.25233693 500.54177542 -5.24651125 499.58264593 -5.24050903 498.5944519 C-5.24221788 497.58002207 -5.24392673 496.56559223 -5.24568737 495.5204221 C-5.24899852 492.09931906 -5.23795186 488.67840938 -5.22705078 485.25732422 C-5.22648702 482.81371058 -5.22680254 480.3700966 -5.22793579 477.92648315 C-5.22839218 472.65428018 -5.22269579 467.38213813 -5.21146011 462.10995102 C-5.19522565 454.48720588 -5.18999922 446.8644847 -5.18748413 439.24172415 C-5.18310379 426.87516583 -5.16978552 414.50863385 -5.15087891 402.14208984 C-5.13252886 390.12711723 -5.11836808 378.11215176 -5.10986328 366.09716797 C-5.10933783 365.35691851 -5.10881239 364.61666906 -5.10827102 363.8539878 C-5.105661 360.14047944 -5.10313357 356.42697103 -5.10064721 352.71346259 C-5.07990417 321.89228924 -5.04452107 291.07114861 -5 260.25 C-6.91442304 260.25276538 -6.91442304 260.25276538 -8.86752129 260.25558662 C-39.13803326 260.29886679 -69.40853691 260.33186321 -99.67907237 260.35213066 C-103.40177096 260.35463219 -107.12446948 260.35722082 -110.84716797 260.35986328 C-111.95888973 260.36065021 -111.95888973 260.36065021 -113.09307052 260.36145304 C-125.10653568 260.37016467 -137.11998176 260.3859388 -149.13343559 260.40430559 C-161.45283925 260.42298359 -173.77223289 260.43411226 -186.09165013 260.43817699 C-193.69840237 260.44092642 -201.30510073 260.44962204 -208.9118364 260.46583293 C-214.73663836 260.47761683 -220.5614124 260.47891667 -226.38622665 260.47621536 C-228.78165011 260.47676801 -231.17707551 260.48077812 -233.57248688 260.48841095 C-236.8298853 260.49828595 -240.08704863 260.49599627 -243.3444519 260.49050903 C-244.3035814 260.49633472 -245.26271089 260.5021604 -246.25090492 260.50816262 C-247.55270122 260.50218947 -247.55270122 260.50218947 -248.88079643 260.49609566 C-250.00970497 260.49723482 -250.00970497 260.49723482 -251.16141975 260.49839699 C-253 260.25 -253 260.25 -255 258.25 C-255.25 255.25 -255.25 255.25 -255 252.25 C-253 250.25 -253 250.25 -251.16141975 250.00160301 C-250.40881405 250.00236245 -249.65620836 250.00312189 -248.88079643 250.00390434 C-248.01293223 249.99992225 -247.14506803 249.99594015 -246.25090492 249.99183738 C-245.29177542 249.99766307 -244.33264593 250.00348875 -243.3444519 250.00949097 C-242.33002207 250.00778212 -241.31559223 250.00607327 -240.2704221 250.00431263 C-236.84931906 250.00100148 -233.42840938 250.01204814 -230.00732422 250.02294922 C-227.56371058 250.02351298 -225.1200966 250.02319746 -222.67648315 250.02206421 C-217.40428018 250.02160782 -212.13213813 250.02730421 -206.85995102 250.03853989 C-199.23720588 250.05477435 -191.6144847 250.06000078 -183.99172415 250.06251587 C-171.62516583 250.06689621 -159.25863385 250.08021448 -146.89208984 250.09912109 C-134.87711723 250.11747114 -122.86215176 250.13163192 -110.84716797 250.14013672 C-109.73679378 250.14092489 -109.73679378 250.14092489 -108.6039878 250.14172898 C-104.89047944 250.144339 -101.17697103 250.14686643 -97.46346259 250.14935279 C-66.64228924 250.17009583 -35.82114861 250.20547893 -5 250.25 C-5.00184359 248.97371798 -5.00368717 247.69743595 -5.00558662 246.38247871 C-5.04886679 216.11196674 -5.08186321 185.84146309 -5.10213066 155.57092763 C-5.10463219 151.84822904 -5.10722082 148.12553052 -5.10986328 144.40283203 C-5.1103879 143.66168419 -5.11091252 142.92053635 -5.11145304 142.15692948 C-5.12016467 130.14346432 -5.1359388 118.13001824 -5.15430559 106.11656441 C-5.17298359 93.79716075 -5.18411226 81.47776711 -5.18817699 69.15834987 C-5.19092642 61.55159763 -5.19962204 53.94489927 -5.21583293 46.3381636 C-5.22761683 40.51336164 -5.22891667 34.6885876 -5.22621536 28.86377335 C-5.22676801 26.46834989 -5.23077812 24.07292449 -5.23841095 21.67751312 C-5.24828595 18.4201147 -5.24599627 15.16295137 -5.24050903 11.9055481 C-5.24633472 10.9464186 -5.2521604 9.98728911 -5.25816262 8.99909508 C-5.25418052 8.13123088 -5.25019842 7.26336668 -5.24609566 6.36920357 C-5.2468551 5.61659787 -5.24761454 4.86399218 -5.24839699 4.08858025 C-4.78186858 0.63543887 -3.25324155 0.27110346 0 0 Z " fill="#000000" transform="translate(256,0.75)"/>
<path d="M0 0 C0.84433594 0.01675781 1.68867188 0.03351563 2.55859375 0.05078125 C4.6875 0.1875 4.6875 0.1875 8 1 C9 2.66666667 10 4.33333333 11 6 C13.84939938 7.014193 15.88796885 7 19 7 C20.02019573 6.0206121 21.02149805 5.02104551 22 4 C25.6875 4.3125 25.6875 4.3125 29 5 C29.165 5.78375 29.33 6.5675 29.5 7.375 C31.23351051 10.4086434 31.76908304 10.55368032 35 11.4375 C37.06604584 11.9918103 37.06604584 11.9918103 39 12 C39.66 11.34 40.32 10.68 41 10 C46.26240904 9.31797939 50.02129949 11.0951199 54.5625 13.5 C55.26068848 13.8609375 55.95887695 14.221875 56.67822266 14.59375 C67.18488855 20.10168133 76.97155596 26.26757454 86 34 C86.90234375 34.75667969 87.8046875 35.51335937 88.734375 36.29296875 C98.22460379 44.48034821 98.22460379 44.48034821 99.43359375 51.52734375 C99.44340615 57.58159741 98.6961411 61.13665645 95 66 C90.81839109 69.53113641 87.46359042 70.81160033 82 71 C74.98023832 70.30953164 71.83565339 67.33687052 66.8125 62.56640625 C46.55871327 44.08482586 20.5205139 34.55764924 -6.75 34.6875 C-7.98919189 34.69313965 -9.22838379 34.6987793 -10.50512695 34.70458984 C-19.38387579 34.82237452 -27.4569253 35.42150934 -36 38 C-36.66999023 38.19867676 -37.33998047 38.39735352 -38.03027344 38.60205078 C-55.42573912 43.87759524 -70.50273887 52.823014 -83.6875 65.4375 C-87.81611741 69.17114138 -91.39826336 70.88060242 -97 71 C-102.23415394 70.50959278 -106.35671902 68.85146846 -110 65 C-112.97987745 59.75952586 -114.03720485 54.91514844 -113 49 C-106.86655067 32.38451822 -82.45921906 19.87507623 -67.26171875 12.8125 C-45.67557846 3.34390583 -23.52504914 -0.60027464 0 0 Z " fill="#010102" transform="translate(393,308)"/>
<path d="M0 0 C1.26481201 -0.00953201 2.52962402 -0.01906403 3.83276367 -0.02888489 C5.20491565 -0.02862347 6.57706764 -0.02768646 7.94921875 -0.02612305 C9.36499151 -0.03001305 10.7807631 -0.03434835 12.1965332 -0.03910828 C15.15872996 -0.04655581 18.12080749 -0.04628949 21.08300781 -0.04101562 C24.87267188 -0.03521668 28.66184789 -0.05216883 32.45143127 -0.0753603 C35.37344194 -0.09011352 38.2953354 -0.09096731 41.21737671 -0.08785057 C42.61437956 -0.08836278 44.01138914 -0.09358177 45.40835571 -0.10366249 C47.36334481 -0.11604172 49.31843292 -0.10728402 51.2734375 -0.09765625 C52.93959106 -0.09860039 52.93959106 -0.09860039 54.6394043 -0.0995636 C58.99957749 0.44481434 61.61905705 2.11324608 64.48779297 5.38720703 C66.15835516 9.58562162 65.57699049 13.05551452 65.01953125 17.47387695 C64.91802765 18.38795822 64.81652405 19.30203949 64.71194458 20.24382019 C64.37189059 23.25653785 64.00547405 26.26532829 63.63671875 29.2746582 C63.389545 31.37694594 63.1431357 33.47932368 62.89746094 35.58178711 C62.12878326 42.08693619 61.32223672 48.58711248 60.51171875 55.0871582 C60.23150314 57.35209906 59.95155387 59.61707288 59.671875 61.88208008 C58.9965455 67.34665492 58.31798273 72.81082019 57.63671875 78.2746582 C58.57990967 78.24847412 59.52310059 78.22229004 60.49487305 78.1953125 C64.0080502 78.10988899 67.52011783 78.04731522 71.03393555 78 C72.55201676 77.97491711 74.06997793 77.9408416 75.58764648 77.89746094 C77.7748784 77.83652527 79.96050914 77.80838925 82.1484375 77.78637695 C83.46287842 77.76019287 84.77731934 77.73400879 86.1315918 77.70703125 C90.53714872 78.42047555 91.96804061 79.75785394 94.63671875 83.2746582 C95.66490509 86.39620491 95.37952192 89.09279986 94.63671875 92.2746582 C92.96088981 95.58039297 90.77828449 98.34094042 88.44921875 101.2121582 C87.15251628 102.88706557 85.8569694 104.56286813 84.5625 106.23950195 C83.90330566 107.07980957 83.24411133 107.92011719 82.56494141 108.78588867 C79.65375826 112.54337171 76.89662443 116.40549178 74.13671875 120.2746582 C69.67944268 126.47328058 65.17409123 132.63446061 60.63671875 138.7746582 C53.90118816 147.89214187 47.25808238 157.07406589 40.63671875 166.2746582 C36.88045135 171.49410949 33.11883109 176.70955282 29.34423828 181.91577148 C28.15531044 183.55823943 26.96898101 185.20259009 25.78466797 186.84838867 C23.90862164 189.45366071 22.02354806 192.05218871 20.13671875 194.6496582 C19.27348999 195.85416626 19.27348999 195.85416626 18.39282227 197.08300781 C15.49107153 201.05869186 12.81817105 204.54669018 8.63671875 207.2746582 C5.06947038 207.79488192 3.16755563 207.51594769 -0.11328125 206.0246582 C-2.56090913 204.12094763 -3.29329286 203.14417429 -4.36328125 200.2746582 C-4.39587402 197.52601624 -4.39587402 197.52601624 -4.08789062 194.38818359 C-3.92293091 192.65388596 -3.92293091 192.65388596 -3.75463867 190.884552 C-3.62549072 189.69328705 -3.49634277 188.50202209 -3.36328125 187.2746582 C-3.24380127 186.16242889 -3.12432129 185.05019958 -3.0012207 183.90426636 C-2.60975048 180.41973281 -2.19346561 176.93898002 -1.76953125 173.45825195 C-1.61794556 172.19876236 -1.46635986 170.93927277 -1.31018066 169.64161682 C-0.99217192 167.00536734 -0.67307453 164.36927941 -0.35205078 161.73339844 C0.05846412 158.36150969 0.4641032 154.98905486 0.86833954 151.61640835 C1.25736947 148.37588521 1.65032423 145.1358388 2.04296875 141.89575195 C2.18778687 140.6884996 2.33260498 139.48124725 2.48181152 138.2374115 C2.61865356 137.11847 2.75549561 135.9995285 2.89648438 134.84667969 C3.01560181 133.86440903 3.13471924 132.88213837 3.25744629 131.87010193 C3.58732286 129.612685 4.03303309 127.4722762 4.63671875 125.2746582 C3.87528564 125.29560547 3.11385254 125.31655273 2.3293457 125.33813477 C-1.13056157 125.42143615 -4.59025763 125.47336405 -8.05078125 125.5246582 C-9.24896484 125.55817383 -10.44714844 125.59168945 -11.68164062 125.6262207 C-12.83857422 125.63911133 -13.99550781 125.65200195 -15.1875 125.6652832 C-16.25057373 125.68623047 -17.31364746 125.70717773 -18.40893555 125.72875977 C-22.22168789 125.14271569 -23.78277503 124.13564794 -26.36328125 121.2746582 C-27.75537759 115.31527541 -27.08927829 109.86676985 -26.33105469 103.84472656 C-26.20922318 102.81946365 -26.08739166 101.79420074 -25.96186829 100.73786926 C-25.5580887 97.36221826 -25.14091391 93.98838739 -24.72265625 90.61450195 C-24.43647304 88.26239225 -24.15077459 85.91022353 -23.86553955 83.55799866 C-23.2662097 78.63392739 -22.66007443 73.7107523 -22.04931641 68.78808594 C-21.26768708 62.48264419 -20.50444147 56.17513485 -19.74645615 49.86681271 C-19.16070748 45.01109642 -18.5645048 40.15670699 -17.96521759 35.30264473 C-17.67956455 32.97746657 -17.39732713 30.65186613 -17.11858368 28.32584953 C-16.72746788 25.07420128 -16.32212888 21.82463038 -15.91308594 18.57519531 C-15.80074112 17.616586 -15.6883963 16.65797668 -15.57264709 15.6703186 C-14.93274467 10.71583297 -14.26873042 6.47662362 -11.36328125 2.2746582 C-7.6608761 0.07915544 -4.24344623 0.01760151 0 0 Z M-4.36328125 11.2746582 C-4.94078125 16.0390332 -5.51828125 20.8034082 -6.11328125 25.7121582 C-7.03580729 33.32299805 -7.95833333 40.93383789 -8.88085938 48.54467773 C-8.96352051 49.22665726 -9.04618164 49.90863678 -9.13134766 50.61128235 C-9.29636241 51.97260325 -9.46140147 53.3339212 -9.62646484 54.69523621 C-10.0360526 58.07344808 -10.44521682 61.45171021 -10.85351562 64.83007812 C-11.63360693 71.28103736 -12.41803973 77.73139205 -13.21594238 84.18017578 C-13.59274677 87.22751538 -13.96735752 90.27512292 -14.34179688 93.32275391 C-14.52103726 94.77650301 -14.70135426 96.23011982 -14.8828125 97.68359375 C-15.13423041 99.69798595 -15.38165384 101.71287548 -15.62890625 103.7277832 C-15.77102539 104.87408203 -15.91314453 106.02038086 -16.05957031 107.20141602 C-16.32832613 109.92094838 -16.42320279 112.54504067 -16.36328125 115.2746582 C-15.59661133 115.28924072 -14.82994141 115.30382324 -14.04003906 115.31884766 C-10.56394632 115.3933504 -7.08881157 115.49000467 -3.61328125 115.5871582 C-2.40671875 115.6097168 -1.20015625 115.63227539 0.04296875 115.65551758 C1.78320312 115.70869141 1.78320312 115.70869141 3.55859375 115.76293945 C5.16105957 115.80221558 5.16105957 115.80221558 6.79589844 115.84228516 C10.06156753 116.33932022 11.45829609 116.78018994 13.63671875 119.2746582 C15.78987633 132.09399898 12.4056032 146.43901644 10.63671875 159.1496582 C10.20397737 162.29114763 9.77449604 165.43296852 9.3527832 168.57595825 C9.09241989 170.51362122 8.82579034 172.45045742 8.55151367 174.38619995 C7.74049773 180.38539256 7.48257366 186.22313797 7.63671875 192.2746582 C11.57480856 188.66710351 14.49906969 184.48128998 17.57421875 180.1496582 C18.74082217 178.52070665 19.90749062 176.89180168 21.07421875 175.26293945 C21.6671875 174.4322998 22.26015625 173.60166016 22.87109375 172.74584961 C25.59407812 168.93472574 28.33273949 165.13499112 31.07421875 161.3371582 C31.60716553 160.59836426 32.1401123 159.85957031 32.68920898 159.09838867 C37.21933189 152.82904032 41.80801097 146.60384843 46.40380859 140.38256836 C51.99115332 132.81136752 57.50035118 125.18521917 62.99707031 117.5480957 C64.70303066 115.18271412 66.41520977 112.82194014 68.12890625 110.4621582 C68.70568115 109.66688721 69.28245605 108.87161621 69.87670898 108.05224609 C70.96608218 106.55049978 72.05663686 105.0496094 73.14868164 103.54980469 C76.78379123 98.53256869 80.19331664 93.43976136 83.63671875 88.2746582 C71.42671875 87.9446582 59.21671875 87.6146582 46.63671875 87.2746582 C47.75930573 72.68102749 47.75930573 72.68102749 48.50390625 66.84106445 C48.66600586 65.54612061 48.82810547 64.25117676 48.99511719 62.91699219 C49.12170715 61.91839676 49.12170715 61.91839676 49.25085449 60.89962769 C51.34004479 44.38187522 53.03542965 27.84800037 54.63671875 11.2746582 C35.16671875 11.2746582 15.69671875 11.2746582 -4.36328125 11.2746582 Z " fill="#020200" transform="translate(350.36328125,24.725341796875)"/>
<path d="M0 0 C4.213397 3.90162344 7.04757039 7.26452703 7.77734375 13.0859375 C7.95002206 18.23865833 7.98458952 22.35496521 4.4375 26.375 C-0.52061158 31.11636354 -4.44347748 32.76501492 -11.234375 32.64453125 C-16.97417629 31.98002405 -20.59281267 28.39728576 -24.625 24.625 C-38.35845004 12.10607275 -57.25721531 5.64385624 -75.78125 6.125 C-96.39652964 7.97805884 -112.52934425 15.8329617 -128.03125 29.3359375 C-132.52590398 32.95663099 -137.0230544 32.88808759 -142.5625 32.375 C-148.23726113 30.41065961 -151.87650331 26.74699338 -154.5625 21.375 C-155.06736048 16.30984239 -155.25232643 11.84088117 -153.0625 7.1875 C-152.2375 6.259375 -151.4125 5.33125 -150.5625 4.375 C-150.03785156 3.77429688 -149.51320313 3.17359375 -148.97265625 2.5546875 C-109.47946703 -40.02782096 -42.02694532 -34.59676714 0 0 Z " fill="#020200" transform="translate(459.5625,391.625)"/>
<path d="M0 0 C6.15457865 6.03183777 10.01738219 13.60950312 14.1875 21.0625 C14.90493048 22.3291549 15.62302504 23.5954339 16.34179688 24.86132812 C25.06409795 40.27889801 25.06409795 40.27889801 24.75 43.8125 C24 46 24 46 23 47 C19.8125 47.6875 19.8125 47.6875 16 47 C14.58764648 45.22216797 14.58764648 45.22216797 13.24609375 42.8046875 C12.73199951 41.89710693 12.21790527 40.98952637 11.68823242 40.05444336 C11.13111572 39.04647705 10.57399902 38.03851074 10 37 C8.73631334 34.78925548 7.4706048 32.57966575 6.203125 30.37109375 C2.63400131 24.11625769 2.63400131 24.11625769 1.22998047 21.63452148 C0.24673238 19.89811199 -0.74370401 18.165779 -1.734375 16.43359375 C-2.60400879 14.90303345 -2.60400879 14.90303345 -3.49121094 13.34155273 C-4.78661422 10.89434775 -4.78661422 10.89434775 -7 10 C-7.15782959 11.25022949 -7.31565918 12.50045898 -7.47827148 13.78857422 C-9.53406083 29.6543527 -12.25014311 45.37824785 -15.0625 61.125 C-15.7359789 64.91934284 -16.40823961 68.71389971 -17.08018494 72.5085144 C-17.49418214 74.84394826 -17.90926944 77.17918927 -18.32569885 79.51419067 C-18.61125893 81.11809158 -18.61125893 81.11809158 -18.90258789 82.75439453 C-19.18116135 84.30033295 -19.18116135 84.30033295 -19.46536255 85.87750244 C-19.83460633 88.03403449 -20.17103605 90.19635109 -20.48068237 92.36224365 C-20.71538742 93.97319916 -20.71538742 93.97319916 -20.95483398 95.61669922 C-21.08510483 96.57953827 -21.21537567 97.54237732 -21.34959412 98.53439331 C-22.07012344 101.26582912 -22.75738877 102.32112371 -25 104 C-27.4921875 104.43359375 -27.4921875 104.43359375 -30 104 C-31.6328125 102.41015625 -31.6328125 102.41015625 -33.125 100.0625 C-33.70636719 99.16917969 -34.28773437 98.27585937 -34.88671875 97.35546875 C-35.58410156 96.24816406 -36.28148437 95.14085937 -37 94 C-37.96269023 92.51552829 -38.92769348 91.032555 -39.89453125 89.55078125 C-42.61347282 85.37810062 -45.31215917 81.19276883 -48 77 C-52.84351745 86.06871352 -56.65520372 95.29262359 -60 105 C-60.34417969 105.99257813 -60.68835938 106.98515625 -61.04296875 108.0078125 C-65.4779441 122.29134814 -62.95165106 136.94285057 -56.0625 150.0625 C-47.91204744 163.7270859 -35.90594697 171.03135101 -21 176 C-4.52123218 177.4977251 10.48019248 176.03331797 23.9921875 165.6875 C26.50177495 163.57827475 28.80534444 161.43850618 31 159 C31.47953125 158.51273438 31.9590625 158.02546875 32.453125 157.5234375 C37.04551603 152.62952585 39.56517109 147.20795031 42 141 C42.32226562 140.20722656 42.64453125 139.41445313 42.9765625 138.59765625 C49.4061644 120.54069017 42.09549016 102.71115343 34.50390625 86.33105469 C31.96513038 80.68638096 31.96513038 80.68638096 32.1484375 77.078125 C33 75 33 75 35 73 C37.3125 72.375 37.3125 72.375 40 73 C44.39827828 78.26800435 46.7807186 84.8914828 49.125 91.25 C49.47046875 92.18384521 49.8159375 93.11769043 50.171875 94.07983398 C51.13232912 96.71398023 52.07155934 99.35442601 53 102 C53.38929688 103.09957031 53.77859375 104.19914062 54.1796875 105.33203125 C59.12932946 121.80726806 56.40393113 139.45881176 48.9375 154.625 C39.63116352 170.83222158 26.00549636 180.65346665 8.375 186.125 C-8.6392141 190.53609254 -26.61722671 188.26917026 -42.0625 179.875 C-57.69024483 169.89984372 -68.6887781 155.97940162 -73.09765625 137.6875 C-78.14832249 113.73362417 -68.3423045 88.80488843 -57 68 C-54.66677596 65.28730492 -53.19397993 64.50709989 -49.625 64.0625 C-48.49964844 63.89427734 -48.49964844 63.89427734 -47.3515625 63.72265625 C-43.87387821 64.13281503 -42.4902948 65.56392624 -40 68 C-38.24451147 70.32899887 -36.70693402 72.76227442 -35.1875 75.25 C-34.57745117 76.22453125 -34.57745117 76.22453125 -33.95507812 77.21875 C-32.96208082 78.80754568 -31.97991459 80.40310215 -31 82 C-29.59450921 77.33081958 -28.52818203 72.77157063 -27.73486328 67.95068359 C-27.56849869 66.95170296 -27.56849869 66.95170296 -27.39877319 65.93254089 C-27.16040071 64.50002467 -26.92367182 63.06723415 -26.68844986 61.63419724 C-26.31447777 59.36300224 -25.93358371 57.09307084 -25.55050659 54.82339478 C-24.46233339 48.37494525 -23.37832666 41.92589041 -22.31884766 35.47265625 C-21.66834263 31.5136031 -21.00294177 27.55730076 -20.32781601 23.60237503 C-20.07430583 22.10025814 -19.82634411 20.59719354 -19.58414078 19.09321213 C-19.24480056 16.9896728 -18.88654405 14.89016085 -18.52392578 12.79052734 C-18.32566193 11.59696625 -18.12739807 10.40340515 -17.92312622 9.17367554 C-16.65276319 4.80621205 -14.63767096 2.00079892 -10.75 -0.375 C-6.93509639 -1.24202355 -3.67370784 -1.32022443 0 0 Z " fill="#020000" transform="translate(133,299)"/>
<path d="M0 0 C5.50407135 1.4415425 8.38211776 7.25080475 11.12792969 11.83886719 C11.60391602 12.65387695 12.07990234 13.46888672 12.5703125 14.30859375 C13.08110352 15.17258789 13.59189453 16.03658203 14.11816406 16.92675781 C23.25265576 32.47025996 32.27964354 48.12792247 40.08300781 64.38964844 C41.30628451 66.91699499 42.55996023 69.42843807 43.8125 71.94140625 C55.75978115 96.1250321 66.64213366 120.42190528 59.1328125 147.55859375 C53.50181164 163.82592958 42.53218465 176.60896242 27.1953125 184.37109375 C11.1442393 192.06534988 -6.50611458 193.15442573 -23.57421875 187.8125 C-38.00439451 182.31773557 -52.75383445 170.81485428 -59.25 156.4140625 C-60.16011719 153.6779507 -60.27308671 151.39988821 -59.8671875 148.55859375 C-57.8671875 146.55859375 -57.8671875 146.55859375 -54.48828125 146.5546875 C-50.8671875 147.55859375 -50.8671875 147.55859375 -48.71484375 150.21875 C-47.83119141 151.90291016 -47.83119141 151.90291016 -46.9296875 153.62109375 C-39.64980471 166.60112832 -28.92015987 173.95299776 -14.8671875 178.55859375 C-1.12416464 181.92148678 13.3257555 179.03924961 25.5703125 172.30859375 C38.82969721 163.92581496 45.16122414 152.39195749 49.70703125 137.703125 C57.01988951 100.87047194 22.07338116 52.03716575 3.70336914 22.19799805 C3.10387451 21.2212915 2.50437988 20.24458496 1.88671875 19.23828125 C1.35377197 18.37960449 0.8208252 17.52092773 0.27172852 16.63623047 C-0.8671875 14.55859375 -0.8671875 14.55859375 -0.8671875 12.55859375 C-1.5271875 12.55859375 -2.1871875 12.55859375 -2.8671875 12.55859375 C-3.13418457 13.27289551 -3.40118164 13.98719727 -3.67626953 14.72314453 C-4.8946638 17.6240119 -6.3219765 20.21771146 -7.921875 22.92578125 C-8.8353772 24.48449951 -8.8353772 24.48449951 -9.76733398 26.07470703 C-10.41903564 27.18313965 -11.0707373 28.29157227 -11.7421875 29.43359375 C-18.37736524 40.80194377 -24.626703 52.32938745 -30.59619141 64.06347656 C-31.73234297 66.29387783 -32.88125374 68.51703245 -34.03515625 70.73828125 C-38.03824982 78.50933808 -41.66220624 86.43154716 -45.1796875 94.43359375 C-45.60072754 95.38492188 -46.02176758 96.33625 -46.45556641 97.31640625 C-48.77327589 102.66309974 -50.66698428 107.90944235 -52.08276367 113.56689453 C-52.8671875 115.55859375 -52.8671875 115.55859375 -55.8671875 117.55859375 C-58.4296875 117.80859375 -58.4296875 117.80859375 -60.8671875 117.55859375 C-62.8671875 115.55859375 -62.8671875 115.55859375 -62.96020508 113.49438477 C-62.3193423 107.36931925 -60.94835298 102.15776114 -58.5546875 96.49609375 C-58.03116699 95.2263269 -58.03116699 95.2263269 -57.49707031 93.9309082 C-44.90623256 63.94226558 -29.26498336 35.09771785 -12.13671875 7.48046875 C-11.58218018 6.58424805 -11.0276416 5.68802734 -10.45629883 4.76464844 C-7.51800378 0.68561417 -4.82918163 0.29353849 0 0 Z " fill="#010102" transform="translate(125.8671875,31.44140625)"/>
<path d="M0 0 C4.66656949 4.30393219 6.91205262 7.82005082 7.5 14.32421875 C7.5 18.86677812 6.15844105 22.34030691 3.75 26.125 C-0.25084093 30.12584093 -3.84379267 31.55785475 -9.4375 31.8125 C-16.51836311 31.55885714 -20.60896459 28.10536479 -25.875 23.8125 C-32.74647955 18.3827522 -40.7508636 16.17034184 -49.5 16.375 C-59.94661771 17.90644134 -68.32244808 21.95256003 -75.9921875 29.140625 C-79.44248437 31.96522036 -83.61281915 31.76841732 -87.859375 31.71875 C-92.22587274 31.15033018 -95.26254116 29.29414754 -98.5 26.375 C-102.36527584 21.30182546 -102.2612267 15.50063606 -101.5 9.375 C-97.31754232 -1.84159105 -84.57849366 -7.93005863 -74.30126953 -12.83105469 C-70.16070949 -14.65608874 -65.92847084 -15.7645266 -61.5 -16.625 C-60.406875 -16.851875 -59.31375 -17.07875 -58.1875 -17.3125 C-36.20863222 -19.17511591 -16.97661565 -14.27155052 0 0 Z " fill="#020000" transform="translate(433.5,434.625)"/>
<path d="M0 0 C3.6875 0.3125 3.6875 0.3125 7 1 C7.165 1.763125 7.33 2.52625 7.5 3.3125 C9.24557389 6.43998655 9.73817191 6.45658793 13 7.4375 C13.70125 7.60121094 14.4025 7.76492188 15.125 7.93359375 C16.053125 8.46146484 16.053125 8.46146484 17 9 C17.25394531 9.94488281 17.50789062 10.88976562 17.76953125 11.86328125 C18.75438234 15.32512822 18.75438234 15.32512822 22.38671875 16.984375 C23.8135172 17.58920433 25.24770589 18.17679389 26.6875 18.75 C40.86055406 24.92642038 58.24290635 34.86435952 67 48 C66.8125 51.0625 66.8125 51.0625 66 54 C62.73887269 56.17408487 61.78279049 56.53632324 58 56 C55.81640625 54.3828125 55.81640625 54.3828125 53.5625 52.125 C37.31911947 36.90576223 17.63015358 27.08031299 -4 22 C-4.99902344 21.75636719 -5.99804688 21.51273437 -7.02734375 21.26171875 C-31.12794434 16.50629823 -55.70907877 20.35798963 -78 30 C-79.16917969 30.50144531 -80.33835937 31.00289063 -81.54296875 31.51953125 C-93.70786394 37.16899105 -104.85237706 45.39617748 -114.32421875 54.890625 C-116.6344012 56.41997656 -118.28745563 56.26861235 -121 56 C-122.8125 54.9375 -122.8125 54.9375 -124 53 C-124.50835128 48.71968223 -124.56514716 46.73774332 -121.90234375 43.26171875 C-114.03499038 36.43090732 -105.90897056 30.41188431 -97 25 C-96.40880371 24.63777344 -95.81760742 24.27554687 -95.20849609 23.90234375 C-74.03427011 11.1613718 -51.1915446 7.17326846 -26.875 6.4375 C-25.52342758 6.39418869 -24.17186494 6.35057098 -22.8203125 6.30664062 C-19.54695806 6.20142566 -16.27353875 6.09928521 -13 6 C-12.34 4.68 -11.68 3.36 -11 2 C-9.741875 2.226875 -8.48375 2.45375 -7.1875 2.6875 C-5.00591522 3.01903491 -5.00591522 3.01903491 -3 3 C-1.97980427 2.0206121 -0.97850195 1.02104551 0 0 Z " fill="#6FBDE3" transform="translate(415,312)"/>
<path d="M0 0 C1.10730469 -0.00773437 2.21460938 -0.01546875 3.35546875 -0.0234375 C27.53992691 0.03340024 50.52144439 9.1626321 67.8671875 25.96484375 C68.61226562 26.71894531 69.35734375 27.47304688 70.125 28.25 C71.115 29.24 71.115 29.24 72.125 30.25 C71.67045455 35.70454545 71.67045455 35.70454545 69.125 38.25 C66.15444705 38.93075172 64.97017367 39.11201359 62.125 38.25 C59.54553449 36.24525751 57.26345069 34.02306941 54.90625 31.76171875 C37.52636443 16.06611984 14.75893774 12.1245845 -7.875 13.25 C-25.63189738 14.63847986 -42.53025978 21.95430297 -55.375 34.3125 C-60.12258738 38.83890194 -60.12258738 38.83890194 -63.8125 39 C-66.875 38.25 -66.875 38.25 -68.8125 37.0625 C-70.26877321 34.57826924 -70.20599876 33.10329308 -69.875 30.25 C-59.1679449 15.6118522 -38.99547333 6.5248277 -21.875 2.25 C-21.23916992 2.07339844 -20.60333984 1.89679688 -19.94824219 1.71484375 C-13.29944377 0.00955848 -6.83561209 -0.04741465 0 0 Z " fill="#EBBC1F" transform="translate(384.875,374.75)"/>
<path d="M0 0 C2.55419922 0.34814453 2.55419922 0.34814453 4.10449219 1.79394531 C8.17934035 8.36779193 11.547533 15.21996987 14.76855469 22.24023438 C15.67627177 24.21677007 16.59669163 26.18699596 17.51904297 28.15673828 C20.90169554 35.4308669 23.97063907 42.74693315 26.55419922 50.34814453 C26.96669922 51.52376953 27.37919922 52.69939453 27.80419922 53.91064453 C30.19643453 64.8750564 27.73306921 75.71427381 21.80419922 85.22314453 C15.74776219 93.44905154 8.46741782 98.62018265 -1.44580078 101.34814453 C-5.49871594 101.79951327 -9.40656469 101.97310777 -13.44580078 101.34814453 C-15.44580078 99.34814453 -15.44580078 99.34814453 -15.75830078 96.91064453 C-15.44580078 94.34814453 -15.44580078 94.34814453 -14.20751953 92.70751953 C-11.9728751 90.98322627 -10.74230435 91.04926387 -7.94580078 91.03564453 C-0.79068133 90.49168808 5.35717316 87.49968444 10.47607422 82.45361328 C15.24414876 76.46991577 18.28581083 69.73314966 17.95654297 61.98876953 C15.72555279 47.34654274 7.91979639 32.75317593 1.19482422 19.72705078 C0.82397705 19.00702881 0.45312988 18.28700684 0.07104492 17.54516602 C-0.62645762 16.20616939 -1.33551997 14.8731032 -2.05834961 13.54760742 C-4.10037107 9.65851561 -5.00266761 6.73907147 -4.44580078 2.34814453 C-2.44580078 0.34814453 -2.44580078 0.34814453 0 0 Z " fill="#C2E4FD" transform="translate(134.44580078125,95.65185546875)"/>
<path d="M0 0 C4.1314635 3.03248246 6.64419636 4.94795029 8.43359375 9.828125 C8.05859375 13.078125 8.05859375 13.078125 6.49609375 15.578125 C4.05859375 17.078125 4.05859375 17.078125 1.30859375 17.265625 C-1.92169883 16.08532579 -3.17754092 15.11907379 -5.62890625 12.828125 C-14.42711376 4.63553024 -25.95457994 1.59038608 -37.72265625 1.828125 C-50.72450907 2.83797765 -60.1569859 7.28376773 -69.80078125 15.8203125 C-71.94140625 17.078125 -71.94140625 17.078125 -74.59375 16.8515625 C-77.23715466 15.98069042 -78.37836349 15.38155643 -79.94140625 13.078125 C-80.28909083 10.11056369 -80.29021346 8.60133581 -78.61328125 6.0859375 C-56.69069225 -15.39107042 -25.08127096 -16.3877627 0 0 Z " fill="#F55A3B" transform="translate(421.94140625,438.921875)"/>
<path d="M0 0 C3.73469649 1.2945706 4.60930072 2.81544842 6.30224609 6.30444336 C6.77525146 7.37190796 6.77525146 7.37190796 7.2578125 8.4609375 C7.5976416 9.18611572 7.9374707 9.91129395 8.28759766 10.65844727 C14.66618229 24.48585914 20.3987653 38.69947408 15.0078125 53.7109375 C12.71371926 59.18591633 10.16909357 63.73252006 6.1328125 68.0859375 C5.57078125 68.70082031 5.00875 69.31570313 4.4296875 69.94921875 C-2.83610574 77.07763354 -11.95848416 80.34474364 -22.0546875 80.5234375 C-27.54249614 80.41062886 -27.54249614 80.41062886 -29.8671875 78.0859375 C-30.1171875 75.0859375 -30.1171875 75.0859375 -29.8671875 72.0859375 C-27.16551873 69.38426873 -25.63673737 69.85789675 -21.8671875 69.7734375 C-13.139411 69.19543906 -6.88517086 66.63854672 -0.9296875 60.1484375 C4.07559775 53.88299808 6.59813503 47.71738607 6.4765625 39.6328125 C5.14565577 29.77200352 0.45310588 20.15376894 -3.73046875 11.20703125 C-4.93566707 7.89791283 -5.24283134 5.57692089 -4.8671875 2.0859375 C-2.8671875 0.0859375 -2.8671875 0.0859375 0 0 Z " fill="#FEC8BF" transform="translate(146.8671875,380.9140625)"/>
<path d="M0 0 C2.3125 0.8125 2.3125 0.8125 3.3125 1.8125 C4.09584856 10.74568647 3.01508588 19.64036427 1.9375 28.5 C1.81149414 29.56355713 1.68548828 30.62711426 1.55566406 31.72290039 C1.42643555 32.72571045 1.29720703 33.72852051 1.1640625 34.76171875 C0.99124756 36.11269653 0.99124756 36.11269653 0.81494141 37.4909668 C0.3125 39.8125 0.3125 39.8125 -1.6875 42.8125 C-4.6875 43.125 -4.6875 43.125 -7.6875 42.8125 C-9.6875 40.8125 -9.6875 40.8125 -9.92675781 38.44921875 C-9.83356709 30.84284053 -9.31726621 23.36760566 -8.4375 15.8125 C-8.32792969 14.70777344 -8.21835937 13.60304688 -8.10546875 12.46484375 C-7.98300781 11.40394531 -7.86054688 10.34304687 -7.734375 9.25 C-7.62963867 8.29996094 -7.52490234 7.34992187 -7.41699219 6.37109375 C-6.26594059 2.33393821 -4.36472367 -0.3045156 0 0 Z " fill="#F7E3AA" transform="translate(367.6875,53.1875)"/>
<path d="M0 0 C2.4375 0.8125 2.4375 0.8125 4.4375 2.8125 C4.77997495 7.35029305 4.47911132 10.72927736 2.4375 14.8125 C1.4375 15.8125 1.4375 15.8125 -1 16 C-3.5625 15.8125 -3.5625 15.8125 -5.5625 13.8125 C-5.86328125 11.31640625 -5.86328125 11.31640625 -5.875 8.375 C-5.89175781 7.40691406 -5.90851563 6.43882813 -5.92578125 5.44140625 C-5.5625 2.8125 -5.5625 2.8125 -4.203125 0.953125 C-2.5625 -0.1875 -2.5625 -0.1875 0 0 Z " fill="#F7E3AA" transform="translate(360.5625,106.1875)"/>
<path d="M0 0 C3.04712124 1.14267047 4.04750315 2.03250629 5.5 4.9375 C5.25925978 8.30786311 4.91201979 9.52548021 2.5 11.9375 C0.0625 12.3125 0.0625 12.3125 -2.5 11.9375 C-4.7855347 9.80958838 -5.42303658 8.46341672 -5.875 5.375 C-5.5 2.9375 -5.5 2.9375 -4.3125 1.0625 C-2.5 -0.0625 -2.5 -0.0625 0 0 Z " fill="#FEC4BA" transform="translate(137.5,361.0625)"/>
<path d="M0 0 C3.0625 0.375 3.0625 0.375 4.9375 2.0625 C6.25050244 4.76144947 6.45270396 6.40944993 6.0625 9.375 C4.0625 11.375 4.0625 11.375 1.125 11.75 C-1.9375 11.375 -1.9375 11.375 -3.8125 9.6875 C-5.12550244 6.98855053 -5.32770396 5.34055007 -4.9375 2.375 C-2.9375 0.375 -2.9375 0.375 0 0 Z " fill="#C0E3FC" transform="translate(123.9375,76.625)"/>
<path d="M0 0 C5.40540541 1.40540541 5.40540541 1.40540541 7 3 C7.3125 5.375 7.3125 5.375 7 8 C5.3125 9.875 5.3125 9.875 3 11 C-1.41025641 10.58974359 -1.41025641 10.58974359 -3 9 C-3.25 5.5625 -3.25 5.5625 -3 2 C-2.01 1.34 -1.02 0.68 0 0 Z " fill="#030506" transform="translate(64,158)"/>
<path d="M0 0 C3.625 0.375 3.625 0.375 7 1 C7.625 4.375 7.625 4.375 8 8 C6 10 6 10 3 10.25 C0 10 0 10 -2 8 C-2.25 5 -2.25 5 -2 2 C-1.34 1.34 -0.68 0.68 0 0 Z " fill="#030100" transform="translate(159,354)"/>
<path d="M0 0 C1.33157895 5.44736842 1.33157895 5.44736842 -0.125 7.875 C-2.59477849 9.3568671 -4.16613833 9.3633156 -7 9 C-9.39456443 6.60543557 -9.75546876 5.34192692 -10 2 C-7.69982557 -2.31282705 -4.18010502 -0.86756897 0 0 Z " fill="#010202" transform="translate(422,313)"/>
</svg>
